<?xml version="1.0" encoding="iso-8859-1"?>
<!-- Generator: Adobe Illustrator 16.0.0, SVG Export Plug-In . SVG Version: 6.00 Build 0)  -->
<!DOCTYPE svg PUBLIC "-//W3C//DTD SVG 1.1//EN" "http://www.w3.org/Graphics/SVG/1.1/DTD/svg11.dtd">
<svg version="1.1" id="Capa_1" xmlns="http://www.w3.org/2000/svg" xmlns:xlink="http://www.w3.org/1999/xlink" x="0px" y="0px"
	 width="48.999px" height="48.999px" viewBox="0 0 48.999 48.999" style="enable-background:new 0 0 48.999 48.999;"
	 xml:space="preserve">
<g>
	<path d="M42.749,24.575c0.959,0,1.734-0.779,1.734-1.738v-1.26c0-0.961-0.775-1.738-1.734-1.738h-8.652V1.982
		c0-0.96-0.777-1.737-1.736-1.737H16.642c-0.96,0-1.737,0.777-1.737,1.737V19.84h-2.954V1.738C11.951,0.779,11.174,0,10.214,0H5.965
		v3.476h2.51v16.362h-2.22c-0.959,0-1.738,0.776-1.738,1.737v1.261c0,0.959,0.777,1.737,1.738,1.737h8.65V34.85H12.88v-7.722
		c0-0.962-0.777-1.739-1.737-1.739H6.254c-0.959,0-1.738,0.777-1.738,1.739v20.136c0,0.961,0.777,1.735,1.738,1.735h4.888
		c0.96,0,1.737-0.774,1.737-1.735v-7.726h23.243v7.726c0,0.961,0.777,1.735,1.736,1.735h4.891c0.959,0,1.734-0.774,1.734-1.735
		V27.131c0-0.963-0.775-1.74-1.734-1.74h-4.891c-0.959,0-1.736,0.777-1.736,1.74v7.721h-2.025V24.575H42.749L42.749,24.575z
		 M18.381,27.346c0.333-0.162,0.702-0.265,1.1-0.265c1.387,0,2.51,1.123,2.51,2.513c0,1.387-1.123,2.51-2.51,2.51
		c-0.397,0-0.767-0.101-1.1-0.264c-0.832-0.408-1.411-1.259-1.411-2.246C16.97,28.604,17.549,27.754,18.381,27.346z M30.62,31.84
		c-0.332,0.163-0.703,0.264-1.103,0.264c-1.384,0-2.509-1.123-2.509-2.51c0-1.388,1.125-2.511,2.509-2.511
		c0.397,0,0.771,0.101,1.103,0.265c0.834,0.409,1.408,1.258,1.408,2.246C32.028,30.583,31.45,31.43,30.62,31.84z M18.381,3.719
		H30.62V18.54H18.381V3.719z"/>
</g>
<g>
</g>
<g>
</g>
<g>
</g>
<g>
</g>
<g>
</g>
<g>
</g>
<g>
</g>
<g>
</g>
<g>
</g>
<g>
</g>
<g>
</g>
<g>
</g>
<g>
</g>
<g>
</g>
<g>
</g>
</svg>
